<?xml version="1.0" encoding="UTF-8" standalone="no"?>
<svg
   width="1009.2978"
   height="230.14755"
   viewBox="0 0 1009.2978 230.14755"
   xml:space="preserve"
   xmlns:inkscape="http://www.inkscape.org/namespaces/inkscape"
   xmlns:sodipodi="http://sodipodi.sourceforge.net/DTD/sodipodi-0.dtd"
   xmlns="http://www.w3.org/2000/svg"
   xmlns:svg="http://www.w3.org/2000/svg">
   <g transform="translate(-37.46698,-432.09067)"><path
       style="fill:#ffffff;fill-opacity:1;stroke-width:1"
       d="m 46.932758,662.16067 -9.465779,-0.17349 v -69.2689 -69.26889 l 16.877047,-16.87047 c 9.282377,-9.27874 17.060778,-16.87045 17.285337,-16.87045 0.224559,0 0.408289,30.99014 0.408289,68.86697 v 68.86698 h 26.065178 26.06519 v 17.28533 17.28533 l -32.78727,0.007 c -18.032979,0.004 -33.281115,0.0764 -33.88473,0.16054 -0.603615,0.0842 -5.357084,0.075 -10.563262,-0.0205 z m 105.630632,-28.54688 -28.39537,-28.3993 v -24.6898 -24.68981 l 35.8069,35.80377 35.8069,35.80377 h 35.80378 35.80378 v 17.28533 17.28533 H 224.17406 180.95874 Z M 354.09043,544.03381 V 432.09068 h 3.29245 3.29244 v 111.94313 111.94313 h -3.29244 -3.29245 z m -121.27172,-8.0972 v -69.27526 h -26.33956 -26.33956 v -17.28533 -17.28534 h 43.6249 43.62489 v 69.28179 69.2818 l -17.28533,17.27881 -17.28534,17.2788 z m 360.70049,1.50369 c -17.12288,-3.86828 -30.81837,-17.15929 -35.33119,-34.28768 -1.44167,-5.47188 -1.96167,-15.05466 -1.11664,-20.57778 2.39147,-15.63055 11.17153,-28.17643 24.71711,-35.31842 8.28882,-4.37034 14.16487,-5.83689 23.38729,-5.83705 14.09847,-2.4e-4 26.1367,4.97087 35.42644,14.62914 8.9852,9.34164 13.13991,20.07136 13.13991,33.93433 0,14.2693 -4.42333,25.42286 -13.80161,34.80114 -6.82724,6.82724 -14.37896,10.86125 -24.27375,12.96666 -5.29649,1.12697 -16.47894,0.97029 -22.14756,-0.31034 z m 22.34701,-14.14124 c 5.086,-1.80345 7.49352,-3.276 11.43498,-6.99418 5.78215,-5.45459 8.88129,-12.09415 9.89839,-21.20629 1.71166,-15.3345 -3.96172,-28.70368 -14.95321,-35.23685 -10.37854,-6.16883 -25.6227,-5.75568 -35.48982,0.96184 -6.22414,4.23739 -11.25033,11.96648 -12.89576,19.83066 -0.95176,4.54878 -1.06179,13.03095 -0.22826,17.59611 2.45905,13.4681 12.13886,23.70053 24.64757,26.05471 4.16384,0.78365 14.15006,0.21239 17.58611,-1.006 z m 277.08773,14.13231 c -13.90292,-3.2138 -25.96742,-12.92553 -32.07765,-25.82197 -5.67538,-11.97867 -6.18748,-27.49774 -1.32357,-40.11032 5.70395,-14.7908 19.56925,-26.19844 35.59618,-29.28661 4.82727,-0.93014 13.79492,-1.03554 18.41922,-0.21648 12.76032,2.26013 24.7264,9.81272 31.4635,19.85871 2.51826,3.75509 5.91199,11.10128 7.03708,15.23272 1.38209,5.07517 1.38498,20.72593 0.005,25.72443 -4.83498,17.51 -16.7379,29.49437 -34.18556,34.41952 -5.18404,1.46336 -18.98965,1.5741 -24.93396,0.2 z m 22.52477,-14.12932 c 5.35351,-1.90356 7.83999,-3.47922 11.78821,-7.47006 6.89228,-6.9667 9.65918,-14.37124 9.65918,-25.84915 0,-10.94562 -2.62692,-18.402 -8.80241,-24.9853 -6.81723,-7.2674 -16.83749,-10.61116 -27.71652,-9.24899 -12.47299,1.56174 -21.54681,8.84891 -25.77471,20.69959 -1.62889,4.56575 -1.69608,5.10402 -1.68933,13.5347 0.006,8.17231 0.11209,9.07945 1.52537,13.1095 1.86568,5.32009 3.55492,8.25727 6.87456,11.95316 4.1423,4.61181 10.6263,8.1911 17.09829,9.43858 3.28942,0.63404 14.02454,-0.11074 17.03736,-1.18203 z M 144.19707,502.3295 108.53207,466.66135 H 72.999531 37.466979 V 449.37602 432.09068 H 80.4079 123.34883 l 28.66975,28.67365 28.66974,28.67364 v 24.27985 c 0,13.35391 -0.18591,24.27984 -0.41313,24.27984 -0.22722,0 -16.46238,-16.05067 -36.07812,-35.66816 z m 319.09279,-12.0723 v -47.74044 h 7.89365 7.89365 l 23.2474,35.14745 23.24738,35.14746 0.14122,-35.14746 0.14122,-35.14745 h 7.95574 7.95574 l -0.14021,47.60326 -0.14022,47.60327 -7.82967,0.15231 -7.82966,0.15232 -19.01675,-28.68684 c -10.45921,-15.77776 -20.94933,-31.63222 -23.31138,-35.23212 l -4.29463,-6.54529 v 35.21699 35.217 h -7.95674 -7.95674 z m 205.77781,-0.0139 v -47.75438 l 8.57314,0.15112 8.57312,0.15111 16.49456,36.8943 c 9.072,20.29186 16.60678,36.78207 16.74395,36.64491 0.13717,-0.13717 7.59726,-16.7396 16.57796,-36.89431 l 16.32856,-36.6449 8.56414,-0.15111 8.56415,-0.15112 v 47.75438 47.75439 h -7.95674 -7.95675 l -0.0131,-32.23853 -0.013,-32.23852 -3.7134,8.23112 c -2.04237,4.52711 -8.51851,19.03248 -14.39144,32.23418 l -10.67802,24.00307 -5.48741,9e-5 -5.48741,9e-5 -14.26726,-31.90954 -14.26727,-31.90955 -0.1416,31.9138 -0.14161,31.91379 h -7.95231 -7.95233 z m 120.72299,0.0139 v -47.74044 h 26.33956 26.33956 v 6.58488 6.5849 h -18.38282 -18.38282 v 13.71852 13.71851 h 16.47964 16.47964 l -0.1546,6.44771 -0.1546,6.44771 -16.32503,0.14535 -16.32505,0.14535 v 14.25909 14.2591 h 18.38282 18.38282 v 6.58489 6.58489 h -26.33956 -26.33956 z m 178.88951,-0.0146 v -47.75513 l 8.00273,0.15186 8.0028,0.15185 23.1383,34.95309 23.1383,34.95309 0.1412,-35.09027 0.1413,-35.09027 h 7.6275 7.6276 l 0.1879,3.15526 c 0.1036,1.73539 0.1015,23.22522 0,47.75518 l -0.1927,44.59991 -7.7354,-0.15191 -7.7353,-0.15191 -23.0759,-34.91747 -23.0758,-34.91748 -0.1412,35.05466 -0.1412,35.05466 h -7.9527 -7.95272 z" /></g></svg>
